<svg xmlns="http://www.w3.org/2000/svg" viewBox="1 1 26 26">
  <path d="M 25.5 14 C 25.5 7.649 20.351 2.5 14 2.5 C 7.649 2.5 2.5 7.649 2.5 14 C 2.5 20.351 7.649 25.5 14 25.5 C 20.351 25.5 25.5 20.351 25.5 14 Z M 27 14 C 27 21.18 21.18 27 14 27 C 6.82 27 1 21.18 1 14 C 1 6.82 6.82 1 14 1 C 21.18 1 27 6.82 27 14 Z M 7.479 14 L 7.631 14 C 7.933 14 8.102 14.338 7.934 14.591 C 7.334 15.491 6.983 16.568 6.983 17.724 L 6.983 18.221 C 6.983 18.342 6.99 18.461 7.004 18.578 C 7.03 18.802 6.862 19 6.637 19 L 6.123 19 C 5.228 19 4.5 18.25 4.5 17.327 C 4.5 15.492 5.727 14 7.479 14 Z M 20.521 14 C 22.274 14 23.5 15.492 23.5 17.327 C 23.5 18.25 22.772 19 21.878 19 L 21.364 19 C 21.139 19 20.97 18.802 20.997 18.578 C 21.01 18.461 21.017 18.342 21.017 18.221 L 21.017 17.724 C 21.017 16.568 20.667 15.491 20.067 14.591 C 19.899 14.338 20.067 14 20.369 14 L 20.521 14 Z M 8.25 13 C 7.147 13 6.25 11.991 6.25 10.75 C 6.25 9.384 7.035 8.5 8.25 8.5 C 9.465 8.5 10.25 9.384 10.25 10.75 C 10.25 11.991 9.353 13 8.25 13 Z M 19.75 13 C 18.647 13 17.75 11.991 17.75 10.75 C 17.75 9.384 18.535 8.5 19.75 8.5 C 20.965 8.5 21.75 9.384 21.75 10.75 C 21.75 11.991 20.853 13 19.75 13 Z M 15.172 13.5 C 17.558 13.5 19.5 15.395 19.5 17.724 L 19.5 18.221 C 19.5 19.202 18.683 20 17.677 20 L 10.323 20 C 9.317 20 8.5 19.202 8.5 18.221 L 8.5 17.724 C 8.5 15.395 10.441 13.5 12.828 13.5 L 15.172 13.5 Z M 16.75 9 C 16.75 10.655 15.517 12 14 12 C 12.484 12 11.25 10.655 11.25 9 C 11.25 7.15 12.304 6 14 6 C 15.697 6 16.75 7.15 16.75 9 Z" fill="#65676b"/>
</svg>