<svg xmlns="http://www.w3.org/2000/svg" viewBox="1.868 2.521 24.264000000000003 22.958">
  <path d="M 25.825 12.29 C 25.824 12.289 25.823 12.288 25.821 12.286 L 15.027 2.937 C 14.752 2.675 14.392 2.527 13.989 2.521 C 13.608 2.527 13.248 2.675 13.001 2.912 L 2.175 12.29 C 1.756 12.658 1.629 13.245 1.868 13.759 C 2.079 14.215 2.567 14.479 3.069 14.479 L 5 14.479 L 5 23.729 C 5 24.695 5.784 25.479 6.75 25.479 L 11 25.479 C 11.552 25.479 12 25.031 12 24.479 L 12 18.309 C 12 18.126 12.148 17.979 12.33 17.979 L 15.67 17.979 C 15.852 17.979 16 18.126 16 18.309 L 16 24.479 C 16 25.031 16.448 25.479 17 25.479 L 21.25 25.479 C 22.217 25.479 23 24.695 23 23.729 L 23 14.479 L 24.931 14.479 C 25.433 14.479 25.921 14.215 26.132 13.759 C 26.371 13.245 26.244 12.658 25.825 12.29" fill="#65676b"/>
</svg>