<svg xmlns="http://www.w3.org/2000/svg" viewBox="2 2.042 24 23.917">
  <path d="M 14 2.042 c 6.76 0 12 4.952 12 11.64 S 20.76 25.322 14 25.322 a 13.091 13.091 0 0 1 -3.474 -0.461 a 0.956 0.956 0 0 0 -0.641 0.047 L 7.5 25.959 a 0.961 0.961 0 0 1 -1.348 -0.849 l -0.065 -2.134 a 0.957 0.957 0 0 0 -0.322 -0.684 A 11.389 11.389 0 0 1 2 13.682 C 2 6.994 7.24 2.042 14 2.042 Z M 6.794 17.086 a 0.57 0.57 0 0 0 0.827 0.758 l 3.786 -2.874 a 0.722 0.722 0 0 1 0.868 0 l 2.8 2.1 a 1.8 1.8 0 0 0 2.6 -0.481 l 3.525 -5.592 a 0.57 0.57 0 0 0 -0.827 -0.758 l -3.786 2.874 a 0.722 0.722 0 0 1 -0.868 0 l -2.8 -2.1 a 1.8 1.8 0 0 0 -2.6 0.481 Z" fill="#65676b"/>
</svg>