<svg xmlns="http://www.w3.org/2000/svg" viewBox="4.75 2.25 20.213 25.75">
  <path d="M 5.75 4 A 0.75 0.75 0 0 1 5 3.25 v -1 a 0.75 0.75 0 0 1 1.5 0 v 1 a 0.75 0.75 0 0 1 -0.75 0.75 Z m 0.75 11.251 a 0.75 0.75 0 0 1 -1.5 0 V 8.749 a 0.75 0.75 0 0 1 1.5 0 v 6.502 Z M 5.75 28 a 0.75 0.75 0 0 1 -0.75 -0.75 v -6.5 a 0.75 0.75 0 0 1 1.5 0 v 6.5 a 0.75 0.75 0 0 1 -0.75 0.75 Z m 15.737 -16.234 L 23.214 6.5 H 9.5 v 11 h 13.715 l -1.728 -5.266 a 0.749 0.749 0 0 1 0 -0.468 Z M 4.75 5 h 19.5 a 0.75 0.75 0 0 1 0.713 0.986 l -1.974 6.006 l 1.974 6.023 a 0.75 0.75 0 0 1 -0.713 0.985 H 4.75 a 0.75 0.75 0 0 1 0 -1.502 L 8 17.5 v -11 H 4.75 a 0.749 0.749 0 1 1 0 -1.5 Z" fill="#65676b"/>
</svg>