<svg xmlns="http://www.w3.org/2000/svg" viewBox="2.5 2.75 23 22.5">
  <path d="M 8.75 25.25 C 8.336 25.25 8 24.914 8 24.5 C 8 24.086 8.336 23.75 8.75 23.75 L 19.25 23.75 C 19.664 23.75 20 24.086 20 24.5 C 20 24.914 19.664 25.25 19.25 25.25 L 8.75 25.25 Z M 17.163 12.846 L 12.055 15.923 C 11.591 16.202 11 15.869 11 15.327 L 11 9.172 C 11 8.631 11.591 8.297 12.055 8.576 L 17.163 11.654 C 17.612 11.924 17.612 12.575 17.163 12.846 Z M 21.75 20.25 C 22.992 20.25 24 19.242 24 18 L 24 6.5 C 24 5.258 22.992 4.25 21.75 4.25 L 6.25 4.25 C 5.008 4.25 4 5.258 4 6.5 L 4 18 C 4 19.242 5.008 20.25 6.25 20.25 L 21.75 20.25 Z M 21.75 21.75 L 6.25 21.75 C 4.179 21.75 2.5 20.071 2.5 18 L 2.5 6.5 C 2.5 4.429 4.179 2.75 6.25 2.75 L 21.75 2.75 C 23.821 2.75 25.5 4.429 25.5 6.5 L 25.5 18 C 25.5 20.071 23.821 21.75 21.75 21.75 Z" fill="#65676b"/>
</svg>